<?xml version="1.0" encoding="UTF-8"?>
<svg id="Layer_1" data-name="Layer 1" xmlns="http://www.w3.org/2000/svg" viewBox="0 0 507.37 500.22">
  <defs>
    <style>
      .cls-1 {
        fill: #227864;
      }

      .cls-1, .cls-2, .cls-3 {
        stroke-width: 0px;
      }

      .cls-2 {
        fill: #fefefe;
      }

      .cls-3 {
        fill: #18625e;
      }
    </style>
  </defs>
  <path class="cls-1" d="m.76,373.02c-.23-2.95-.67-5.9-.67-8.86-.02-78.62-.25-157.24.16-235.86.13-24.83,3.99-49.18,17.01-71.11C38.55,21.34,71.26,3.83,111.76,1.37,142.42-.49,173.24.2,203.99.12c58.97-.15,117.95-.18,176.92.01,25.03.08,49.38,4.02,71.15,17.37,33.84,20.75,53.41,51.25,54.06,90.8,1.43,86.71.98,173.44,1.24,260.17.02,5.94-.44,11.89-.67,17.84-.13-2.77-.36-5.54-.36-8.31-.02-77.8-.02-155.6-.03-233.41,0-2.38,0-4.75,0-7.32-6,3.74-10.99,6.71-15.8,9.96-1.3.88-2.88,2.6-2.88,3.93-.01,5.8-3.89,6.48-8.19,7-1.16.14-2.54.25-3.4.91-6.15,4.71-12.19,9.56-18.59,14.62-1.2-.77-2.72-1.75-3.16-2.03-1.42,3.71-2.1,7.4-4.08,10.17-2.54,3.55-6.2,6.27-9.21,9.5-2.09,2.24-4.16,4.56-5.77,7.15-5.35,8.61-8.46,20.28-22.92,15.52-1.52-.5-3.39.06-5.1.13-9.9,6.8-19.79,13.59-29.69,20.39-.6.53-1.2,1.06-1.8,1.59l.26-.07c-.58.74-1.16,1.47-1.73,2.21l-.05.07c-.4.46-.8.92-1.2,1.37,0,0,.08-.06.08-.06-.41.51-.82,1.02-1.23,1.52l.14-.14c-.52.8-1.05,1.59-1.57,2.39l-.03.06-1.15,1.48.15-.11c-.5.84-1,1.67-1.5,2.51v-.03c-.41.68-.83,1.36-1.25,2.04l.04.37-1.39,2.68-.02.04c-.39.69-.78,1.38-1.17,2.08l.13.31c-1.32,1.8-2.7,3.57-3.96,5.42-.76,1.12-1.24,3.27-2.05,3.37-3.95.52-3.78,3.38-4.89,6.18-1.23,3.11-3.87,6.71-6.78,7.83-3.6,1.39-8.1.46-12.21.53,0,0,.08.02.08.02-.66-.44-1.31-.89-1.97-1.33l-.32.13-.21-.27c-.51-.37-1.01-.74-1.52-1.12l.14.11-2.02-1.39-.39-.05c-.7-.43-1.4-.85-2.1-1.28-5.72-2.22-11.52-4.28-17.14-6.72-4.33-1.88-7.97-.91-11.18,2.01-23.49,21.45-64.63,20.45-87.88.8-3.31-2.8-6.72-4.34-12-2.95-17.59,4.62-32.01,14.71-46.53,24.83-6.3-.91-8.76,4.45-12.53,7.68-7.35,6.29-16.52,10.88-19.96,20.84-3.79,10.97-16.76,9.64-22.99,17.32-.23.28-1.29.12-1.83-.13-5.02-2.34-7.09.49-8.31,4.72-.92,3.22-2.21,5.61-6.28,4.16-.84-.3-2.22-.19-2.88.33-4.49,3.47-8.85,7.1-12.85,10.35-2.69-1-4.58-2.45-6.14-2.15-5.91,1.11-11.84,1.4-17.07,5.89-4.74,4.07-10.96,6.95-17,8.82-7.31,2.26-15.11,2.9-22.7,4.24Zm291.97-200.6c4.81.09,9.66.64,14.42.18,7.81-.75,15.56-2.08,23.32-3.3,9.72-1.52,19.44-3.1,29.14-4.8,2.49-.44,5.03-1.1,7.3-2.18,5.45-2.6,6.37-7.67,2.02-11.87-1.92-1.85-4.46-3.49-7.01-4.19-8.86-2.45-17.84-4.46-26.78-6.6-3.6-.86-7.4-1.18-10.79-2.54-6.3-2.53-5.73-8.8-6.65-14.07-2.44-14.03-7.21-27.11-19.47-35.24-6.74-4.46-15.07-6.52-22.69-9.66-.89-.48-1.77-1.36-2.67-1.36-11.81-.09-23.62-.11-35.43.02-.98.01-1.95,1.19-2.93,1.82-12.72,1.97-24.02,6.33-32.35,16.99-7.31,9.36-9.72,20.35-12.23,31.46-1.03,4.56-1.32,9.75-7.71,10.76-4.9.78-9.8,1.78-14.55,3.19-9.33,2.76-18.78,5.37-27.69,9.2-2.31.99-3.51,6.2-3.76,9.58-.11,1.52,3.18,4.45,5.24,4.78,11.35,1.79,22.77,3.28,34.21,4.3,16.34,1.46,32.73,2.43,49.1,3.61-1.42.32-2.85.65-5.67,1.29h78.48c-2.88-.81-3.87-1.09-4.87-1.37Zm-104.63,13.2c-.05,25.64,4.8,49.8,29.29,65.35,23.15,14.7,47,16.83,70.9,2.06,25.33-15.66,32.64-40.02,31.97-67.41h-132.16Z"/>
  <path class="cls-3" d="m.76,373.02c7.59-1.34,15.39-1.98,22.7-4.24,6.04-1.87,12.27-4.75,17-8.82,5.23-4.49,11.16-4.78,17.07-5.89,1.56-.29,3.45,1.15,6.14,2.15,4-3.25,8.37-6.88,12.85-10.35.67-.52,2.05-.63,2.88-.33,4.07,1.45,5.36-.95,6.28-4.16,1.22-4.24,3.29-7.07,8.31-4.72.54.25,1.6.41,1.83.13,6.23-7.68,19.2-6.35,22.99-17.32,3.44-9.96,12.61-14.55,19.96-20.84,3.77-3.23,6.23-8.58,12.53-7.68-4.32,4.55-8.69,9.05-12.95,13.66-10.27,11.12-16.29,24.57-17.72,39.29-1.32,13.53-.31,27.3-.18,40.97.22,21.52,11.48,32.58,33.03,32.58,57.7,0,115.41-.04,173.11-.01,8.67,0,9.33-.49,9.39-9.29.06-9.62-.3-19.25.14-28.84.27-6.03-1.65-10.27-5.88-14.65-17.3-17.96-24.11-39.98-24.1-65.61,3.2.73,5.66,1.04,7.94,1.85,26.58,9.48,39.18,34.32,34.66,64.4-2.33,15.49-1.82,31.43-2.3,47.17-.13,4.26,1.73,7.52,7.02,6.52l2.43-1.48.24.28s-.19-.31-.19-.31c.43-.52.86-1.03,1.29-1.55-.08-.32.03-.56.32-.7.44-.92,1.24-1.82,1.26-2.75.39-15.36.68-30.73.99-46.1l.03-.13c.87-1.34,1.74-2.68,2.61-4.02,1.93-1.18,3.74-2.64,5.81-3.48,8.62-3.5,17.46-6.49,25.94-10.28,17.67-7.89,24.92-23.82,31.3-41.13-12.75.01-24.54,1.32-35.72,6.13-11.54,4.97-19.61,13.63-25.24,26.32-1.03-2.81-1.85-3.96-1.79-5.06.96-16.66,5.1-31.53,21.3-40.34,14.18-7.71,22.82-19.82,25.24-35.82,2.25-14.89,2.04-29.8-2.08-44.45,1.71-.07,3.58-.63,5.1-.13,14.46,4.76,17.57-6.91,22.92-15.52,1.61-2.58,3.68-4.91,5.77-7.15,3.01-3.23,6.68-5.95,9.21-9.5,1.98-2.77,2.66-6.46,4.08-10.17.43.28,1.96,1.26,3.16,2.03,6.4-5.06,12.44-9.91,18.59-14.62.86-.66,2.24-.77,3.4-.91,4.29-.52,8.18-1.2,8.19-7,0-1.33,1.58-3.05,2.88-3.93,4.81-3.25,9.8-6.21,15.8-9.96,0,2.57,0,4.94,0,7.32,0,77.8,0,155.6.03,233.41,0,2.77.24,5.54.36,8.31-2.23,49.63-24.72,85.49-71.36,104.87-15.18,6.31-31.19,8.78-47.46,8.81-88.02.17-176.05.43-264.07-.07-41.27-.23-76.33-14.91-101.04-49.49C6.25,427.34.61,400.95.76,373.02Z"/>
  <path class="cls-2" d="m353.48,418.98c-5.28,1-7.15-2.25-7.02-6.52.48-15.74-.03-31.68,2.3-47.17,4.52-30.08-8.08-54.93-34.66-64.4-2.28-.81-4.75-1.12-7.94-1.85,0,25.63,6.8,47.65,24.1,65.61,4.23,4.39,6.15,8.62,5.88,14.65-.44,9.6-.07,19.23-.14,28.84-.06,8.8-.72,9.29-9.39,9.29-57.7-.02-115.41.01-173.11.01-21.56,0-32.82-11.06-33.03-32.58-.14-13.66-1.14-27.43.18-40.97,1.44-14.73,7.45-28.17,17.72-39.29,4.26-4.61,8.63-9.11,12.95-13.66,14.52-10.12,28.93-20.21,46.53-24.83,5.28-1.39,8.69.15,12,2.95,23.25,19.65,64.39,20.65,87.88-.8,3.21-2.93,6.85-3.89,11.18-2.01,5.63,2.44,11.42,4.5,17.15,6.72.7.43,1.4.85,2.1,1.28,0,0,.39.05.39.05.67.46,1.35.93,2.02,1.39,0,0-.14-.11-.14-.11.51.37,1.01.74,1.52,1.11l.21.27s.32-.13.32-.13c.66.45,1.31.89,1.97,1.33,0,0-.08-.02-.08-.02,11.06,8.99,22.55,17.68,23.47,34.42,5.52-6.13,5.84-12.55,4.07-19.15-2.19-8.17-4.53-16.21-1.65-24.74,1.54-4.55,2.67-9.24,3.98-13.86,0,0-.13-.31-.13-.31.39-.69.78-1.38,1.17-2.08,0,0,.02-.04.02-.04.46-.89.93-1.78,1.39-2.68,0,0-.04-.37-.04-.37.42-.68.84-1.36,1.26-2.04,0,0-.01.03-.01.03.5-.84,1-1.67,1.5-2.51,0,0-.15.11-.15.11.38-.49.77-.99,1.15-1.48,0,0,.03-.06.03-.06.52-.8,1.05-1.59,1.57-2.39,0,0-.14.14-.14.13.41-.51.82-1.02,1.23-1.52,0,0-.08.06-.08.06.4-.46.8-.92,1.2-1.37,0,0,.05-.07.05-.07.58-.74,1.16-1.47,1.73-2.21,0,0-.26.07-.26.07.6-.53,1.2-1.06,1.8-1.59,9.9-6.8,19.79-13.59,29.69-20.39,4.11,14.66,4.33,29.56,2.08,44.45-2.42,16-11.05,28.11-25.24,35.82-16.19,8.8-20.34,23.68-21.3,40.34-.06,1.1.76,2.24,1.79,5.06,5.63-12.69,13.69-21.35,25.24-26.32,11.17-4.81,22.97-6.12,35.72-6.13-6.38,17.31-13.63,33.24-31.3,41.13-8.49,3.79-17.33,6.77-25.94,10.28-2.07.84-3.88,2.3-5.81,3.48-.87,1.34-1.74,2.68-2.61,4.02,0,0-.03.13-.03.13-.61,3.7-1.65,7.39-1.75,11.11-.35,12.57-.36,25.16-.5,37.74-.3.15-.4.38-.32.7-.43.52-.86,1.03-1.29,1.55l.19.31s-.24-.28-.23-.28c-.81.49-1.62.99-2.43,1.48Z"/>
  <path class="cls-2" d="m275.55,78.16c7.61,3.14,15.95,5.2,22.69,9.66,12.27,8.12,17.04,21.2,19.47,35.24.91,5.26.35,11.54,6.65,14.07,3.39,1.36,7.19,1.68,10.79,2.54,8.94,2.14,17.92,4.15,26.78,6.6,2.54.7,5.08,2.34,7.01,4.19,4.36,4.19,3.44,9.27-2.02,11.87-2.27,1.08-4.81,1.75-7.3,2.18-9.7,1.7-19.41,3.28-29.14,4.8-7.76,1.21-15.52,2.55-23.32,3.3-4.76.46-9.61-.08-14.41-.18-22.65.03-45.3.05-67.94.08-16.37-1.18-32.76-2.15-49.1-3.61-11.45-1.02-22.86-2.51-34.21-4.3-2.06-.33-5.35-3.26-5.24-4.78.25-3.38,1.46-8.58,3.76-9.58,8.91-3.82,18.35-6.43,27.69-9.2,4.75-1.41,9.65-2.41,14.55-3.19,6.39-1.01,6.67-6.2,7.71-10.76,2.51-11.11,4.93-22.1,12.23-31.46,8.32-10.66,19.63-15.02,32.35-16.99,10.74-.11,21.48-.22,32.22-.34,2.93-.03,5.87-.09,8.8-.14Z"/>
  <path class="cls-2" d="m188.1,185.62h132.16c.66,27.38-6.64,51.75-31.97,67.41-23.9,14.77-47.74,12.64-70.9-2.06-24.49-15.55-29.33-39.71-29.29-65.35Z"/>
  <path class="cls-3" d="m364.24,254.82c-1.31,4.63-2.44,9.31-3.98,13.86-2.89,8.52-.54,16.56,1.65,24.74,1.77,6.6,1.45,13.02-4.07,19.15-.93-16.75-12.41-25.43-23.47-34.42,4.11-.07,8.61.86,12.21-.53,2.9-1.12,5.55-4.72,6.78-7.83,1.11-2.8.93-5.66,4.89-6.18.81-.11,1.29-2.26,2.05-3.37,1.26-1.84,2.63-3.62,3.96-5.42Z"/>
  <path class="cls-3" d="m224.79,172.5c22.65-.03,45.3-.05,67.94-.08.99.28,1.99.56,4.87,1.36h-78.48c2.82-.64,4.25-.96,5.67-1.29Z"/>
  <path class="cls-3" d="m375.98,236.04c-.58.74-1.16,1.47-1.73,2.21.58-.74,1.16-1.47,1.73-2.21Z"/>
  <path class="cls-3" d="m371.99,241.02c-.52.8-1.05,1.59-1.57,2.39.52-.8,1.05-1.59,1.57-2.39Z"/>
  <path class="cls-3" d="m369.38,244.83c-.5.84-1,1.67-1.5,2.51.5-.84,1-1.67,1.5-2.51Z"/>
  <path class="cls-3" d="m366.68,249.72c-.46.89-.93,1.78-1.39,2.68.46-.89.93-1.78,1.39-2.68Z"/>
  <path class="cls-3" d="m377.52,234.52c-.6.53-1.2,1.06-1.8,1.59.6-.53,1.2-1.06,1.8-1.59Z"/>
  <path class="cls-3" d="m374.2,238.32c-.4.46-.8.92-1.2,1.37.4-.46.8-.92,1.2-1.37Z"/>
  <path class="cls-3" d="m373.08,239.63c-.41.51-.82,1.01-1.23,1.52.41-.51.82-1.01,1.23-1.52Z"/>
  <path class="cls-3" d="m370.39,243.46c-.38.49-.77.99-1.15,1.48.38-.49.77-.99,1.15-1.48Z"/>
  <path class="cls-3" d="m367.9,247.31c-.42.68-.84,1.36-1.26,2.04.42-.68.84-1.36,1.26-2.04Z"/>
  <path class="cls-3" d="m365.28,252.44c-.39.69-.78,1.38-1.17,2.08.39-.69.78-1.38,1.17-2.08Z"/>
  <path class="cls-3" d="m328.15,274.26c-.7-.43-1.4-.85-2.1-1.28.7.43,1.4.85,2.1,1.28Z"/>
  <path class="cls-3" d="m330.56,275.7c-.67-.46-1.35-.93-2.02-1.39.67.46,1.35.93,2.02,1.39Z"/>
  <path class="cls-3" d="m331.94,276.7c-.51-.37-1.01-.74-1.52-1.11.51.37,1.01.74,1.52,1.11Z"/>
  <path class="cls-3" d="m334.44,278.18c-.66-.44-1.31-.89-1.97-1.33.66.44,1.31.89,1.97,1.33Z"/>
  <path class="cls-1" d="m357.56,415.22c.14-12.58.15-25.16.5-37.74.1-3.72,1.14-7.41,1.75-11.11-.31,15.37-.6,30.73-.99,46.1-.02.93-.82,1.83-1.26,2.75Z"/>
  <path class="cls-1" d="m359.83,366.24c.87-1.34,1.74-2.68,2.61-4.02-.87,1.34-1.74,2.68-2.61,4.02Z"/>
  <path class="cls-1" d="m353.48,418.98c.81-.49,1.62-.99,2.43-1.48-.81.49-1.62.99-2.43,1.48Z"/>
  <path class="cls-1" d="m355.94,417.47c.43-.52.86-1.03,1.29-1.55-.43.52-.86,1.03-1.29,1.55Z"/>
</svg>